<?xml version="1.0" standalone="no"?>
<!DOCTYPE svg PUBLIC "-//W3C//DTD SVG 20010904//EN"
 "http://www.w3.org/TR/2001/REC-SVG-20010904/DTD/svg10.dtd">
<svg version="1.0" xmlns="http://www.w3.org/2000/svg"
 width="256.000000pt" height="256.000000pt" viewBox="0 0 256.000000 256.000000"
 preserveAspectRatio="xMidYMid meet">
<metadata>
Created by potrace 1.11, written by Peter Selinger 2001-2013
</metadata>
<g transform="translate(0.000000,256.000000) scale(0.100000,-0.100000)"
fill="#000000" stroke="none">
<path d="M1114 2420 c-17 -4 -38 -6 -47 -4 -9 1 -17 -1 -17 -5 0 -4 -8 -7 -17
-8 -34 -2 -78 -11 -104 -21 -15 -6 -30 -8 -33 -5 -3 4 -6 1 -6 -4 0 -6 -18
-14 -40 -18 -22 -4 -40 -11 -40 -16 0 -5 -6 -9 -14 -9 -16 0 -114 -50 -155
-80 -16 -10 -31 -17 -35 -13 -3 3 -6 -1 -6 -11 0 -9 -4 -15 -9 -12 -5 3 -20
-6 -35 -21 -14 -14 -26 -23 -26 -20 0 9 -142 -134 -180 -181 -19 -24 -34 -48
-33 -52 2 -5 -6 -12 -17 -15 -11 -4 -18 -11 -14 -16 3 -5 -8 -26 -24 -47 -16
-20 -30 -41 -30 -45 0 -4 -9 -27 -20 -50 -47 -101 -53 -118 -47 -127 3 -6 2
-10 -3 -10 -8 0 -36 -97 -37 -130 -1 -8 -3 -20 -7 -25 -3 -6 -5 -22 -4 -37 1
-16 -1 -28 -5 -28 -3 0 -5 -21 -5 -46 1 -25 -2 -48 -7 -51 -4 -2 -3 -12 2 -20
5 -9 5 -29 1 -44 -5 -15 -6 -30 -2 -33 6 -6 7 -14 12 -98 2 -27 7 -48 11 -48
3 0 5 -10 5 -23 -1 -12 0 -26 3 -32 3 -5 7 -16 8 -22 7 -30 12 -48 13 -50 2
-2 3 -6 5 -10 1 -5 7 -21 14 -37 6 -16 13 -36 14 -45 4 -22 50 -115 60 -119 4
-2 5 -8 1 -13 -3 -5 0 -9 6 -9 6 0 8 -4 5 -10 -3 -5 -1 -10 4 -10 6 0 11 -7
11 -15 0 -8 5 -15 10 -15 6 0 10 -6 10 -13 0 -8 11 -24 25 -37 14 -13 23 -26
20 -28 -3 -3 9 -18 25 -34 16 -15 28 -28 25 -28 -2 0 7 -11 21 -25 14 -14 29
-25 34 -25 6 0 10 -5 10 -11 0 -12 24 -35 80 -78 19 -14 39 -32 43 -38 4 -7
14 -13 21 -13 8 0 19 -6 25 -14 10 -12 191 -107 211 -112 3 0 12 -4 20 -7 24
-10 115 -38 136 -42 10 -2 21 -4 24 -5 3 -1 9 -2 14 -1 5 1 16 -1 25 -5 9 -4
25 -7 36 -8 11 -1 25 -4 30 -6 10 -6 230 -3 290 3 17 1 36 6 43 10 6 5 17 5
22 2 6 -3 16 -3 23 2 6 4 19 8 27 8 14 1 102 27 145 44 33 13 180 85 185 91 3
4 22 16 43 29 20 12 37 27 37 32 0 6 4 8 9 5 5 -3 25 9 44 28 20 19 38 32 41
29 2 -2 7 5 11 16 3 12 10 21 14 21 11 0 51 35 51 45 0 4 14 20 30 35 17 16
32 33 33 37 1 4 5 7 10 5 4 -1 6 1 5 5 -2 5 8 23 22 41 14 19 24 36 22 38 -1
3 3 11 10 19 30 33 38 45 38 54 0 13 33 74 45 83 6 4 7 8 3 8 -3 0 4 27 17 59
46 118 68 237 70 384 1 75 -1 137 -5 137 -4 0 -6 16 -5 36 0 19 -2 37 -6 40
-4 2 -6 18 -5 35 1 16 -1 32 -6 35 -4 3 -8 14 -8 25 0 10 -5 19 -11 19 -5 0
-8 4 -5 9 6 8 -25 106 -37 118 -4 3 -7 14 -7 24 0 9 -5 19 -10 21 -6 2 -12 13
-13 26 0 12 -4 22 -7 22 -3 0 -16 20 -29 45 -13 25 -28 45 -32 45 -5 0 -9 6
-9 13 0 7 -9 23 -20 35 -11 12 -20 24 -20 28 0 4 -11 17 -26 30 -14 13 -23 24
-21 24 3 0 -18 24 -47 53 -28 29 -53 52 -55 51 -2 -2 -15 9 -30 24 -33 35
-101 85 -101 76 0 -4 -7 1 -15 12 -8 10 -15 15 -15 11 0 -4 -10 1 -22 13 -12
11 -30 20 -39 20 -10 0 -19 3 -21 8 -7 16 -248 109 -248 96 0 -3 -8 -1 -17 4
-41 22 -326 37 -399 22z"/>
</g>
</svg>
